<?xml version="1.0" encoding="UTF-8" standalone="no"?><svg xmlns="http://www.w3.org/2000/svg" xmlns:xlink="http://www.w3.org/1999/xlink" contentStyleType="text/css" height="585px" preserveAspectRatio="none" style="width:694px;height:585px;background:#FFFFFF;" version="1.1" viewBox="0 0 694 585" width="694px" zoomAndPan="magnify"><defs/><g><!--MD5=[fa22f29c53ed6d2510bea2e0aa245b7f]
class Window--><g id="elem_Window"><rect codeLine="2" fill="#F1F1F1" height="48" id="Window" rx="2.5" ry="2.5" style="stroke:#181818;stroke-width:0.5;" width="81" x="606.5" y="76.65"/><ellipse cx="621.5" cy="92.65" fill="#ADD1B2" rx="11" ry="11" style="stroke:#181818;stroke-width:1.0;"/><path d="M624.2656,88.525 Q624.4219,88.3062 624.6094,88.1969 Q624.7969,88.0875 625.0156,88.0875 Q625.3906,88.0875 625.625,88.3453 Q625.8594,88.6031 625.8594,89.2125 L625.8594,90.6656 Q625.8594,91.275 625.625,91.5406 Q625.3906,91.8062 625.0156,91.8062 Q624.6719,91.8062 624.4688,91.6031 Q624.2656,91.4156 624.1563,90.9 Q624.1094,90.5406 623.9219,90.3531 Q623.5938,89.9781 622.9844,89.7594 Q622.375,89.5406 621.75,89.5406 Q620.9844,89.5406 620.3516,89.8687 Q619.7188,90.1969 619.2266,90.9469 Q618.7344,91.6969 618.7344,92.7281 L618.7344,93.8219 Q618.7344,95.0562 619.625,95.8766 Q620.5156,96.6969 622.1094,96.6969 Q623.0469,96.6969 623.7031,96.4469 Q624.0938,96.2906 624.5156,95.8531 Q624.7813,95.5875 624.9297,95.5094 Q625.0781,95.4312 625.2813,95.4312 Q625.6094,95.4312 625.8672,95.6891 Q626.125,95.9469 626.125,96.2906 Q626.125,96.6344 625.7813,97.0406 Q625.2813,97.6187 624.4844,97.9469 Q623.4063,98.4 622.1094,98.4 Q620.5938,98.4 619.3906,97.775 Q618.4063,97.275 617.7188,96.2047 Q617.0313,95.1344 617.0313,93.8531 L617.0313,92.6969 Q617.0313,91.3687 617.6484,90.2203 Q618.2656,89.0719 619.3594,88.4547 Q620.4531,87.8375 621.6875,87.8375 Q622.4219,87.8375 623.0703,88.0016 Q623.7188,88.1656 624.2656,88.525 Z " fill="#000000"/><text fill="#000000" font-family="sans-serif" font-size="14" lengthAdjust="spacing" textLength="49" x="635.5" y="98.3785">Window</text><line style="stroke:#181818;stroke-width:0.5;" x1="607.5" x2="686.5" y1="108.65" y2="108.65"/><line style="stroke:#181818;stroke-width:0.5;" x1="607.5" x2="686.5" y1="116.65" y2="116.65"/></g><!--MD5=[fdd7da9010b17023535d2baa3a3c9e81]
class Render--><g id="elem_Render"><rect codeLine="3" fill="#F1F1F1" height="48" id="Render" rx="2.5" ry="2.5" style="stroke:#181818;stroke-width:0.5;" width="79" x="376.5" y="76.65"/><ellipse cx="391.5" cy="92.65" fill="#ADD1B2" rx="11" ry="11" style="stroke:#181818;stroke-width:1.0;"/><path d="M394.2656,88.525 Q394.4219,88.3062 394.6094,88.1969 Q394.7969,88.0875 395.0156,88.0875 Q395.3906,88.0875 395.625,88.3453 Q395.8594,88.6031 395.8594,89.2125 L395.8594,90.6656 Q395.8594,91.275 395.625,91.5406 Q395.3906,91.8062 395.0156,91.8062 Q394.6719,91.8062 394.4688,91.6031 Q394.2656,91.4156 394.1563,90.9 Q394.1094,90.5406 393.9219,90.3531 Q393.5938,89.9781 392.9844,89.7594 Q392.375,89.5406 391.75,89.5406 Q390.9844,89.5406 390.3516,89.8687 Q389.7188,90.1969 389.2266,90.9469 Q388.7344,91.6969 388.7344,92.7281 L388.7344,93.8219 Q388.7344,95.0562 389.625,95.8766 Q390.5156,96.6969 392.1094,96.6969 Q393.0469,96.6969 393.7031,96.4469 Q394.0938,96.2906 394.5156,95.8531 Q394.7813,95.5875 394.9297,95.5094 Q395.0781,95.4312 395.2813,95.4312 Q395.6094,95.4312 395.8672,95.6891 Q396.125,95.9469 396.125,96.2906 Q396.125,96.6344 395.7813,97.0406 Q395.2813,97.6187 394.4844,97.9469 Q393.4063,98.4 392.1094,98.4 Q390.5938,98.4 389.3906,97.775 Q388.4063,97.275 387.7188,96.2047 Q387.0313,95.1344 387.0313,93.8531 L387.0313,92.6969 Q387.0313,91.3687 387.6484,90.2203 Q388.2656,89.0719 389.3594,88.4547 Q390.4531,87.8375 391.6875,87.8375 Q392.4219,87.8375 393.0703,88.0016 Q393.7188,88.1656 394.2656,88.525 Z " fill="#000000"/><text fill="#000000" font-family="sans-serif" font-size="14" lengthAdjust="spacing" textLength="47" x="405.5" y="98.3785">Render</text><line style="stroke:#181818;stroke-width:0.5;" x1="377.5" x2="454.5" y1="108.65" y2="108.65"/><line style="stroke:#181818;stroke-width:0.5;" x1="377.5" x2="454.5" y1="116.65" y2="116.65"/></g><!--MD5=[e4faacc5b8aef66b11ab0c816bbbc7f8]
class Scene--><g id="elem_Scene"><rect codeLine="4" fill="#F1F1F1" height="48" id="Scene" rx="2.5" ry="2.5" style="stroke:#181818;stroke-width:0.5;" width="72" x="269" y="76.65"/><ellipse cx="284" cy="92.65" fill="#ADD1B2" rx="11" ry="11" style="stroke:#181818;stroke-width:1.0;"/><path d="M286.7656,88.525 Q286.9219,88.3062 287.1094,88.1969 Q287.2969,88.0875 287.5156,88.0875 Q287.8906,88.0875 288.125,88.3453 Q288.3594,88.6031 288.3594,89.2125 L288.3594,90.6656 Q288.3594,91.275 288.125,91.5406 Q287.8906,91.8062 287.5156,91.8062 Q287.1719,91.8062 286.9688,91.6031 Q286.7656,91.4156 286.6563,90.9 Q286.6094,90.5406 286.4219,90.3531 Q286.0938,89.9781 285.4844,89.7594 Q284.875,89.5406 284.25,89.5406 Q283.4844,89.5406 282.8516,89.8687 Q282.2188,90.1969 281.7266,90.9469 Q281.2344,91.6969 281.2344,92.7281 L281.2344,93.8219 Q281.2344,95.0562 282.125,95.8766 Q283.0156,96.6969 284.6094,96.6969 Q285.5469,96.6969 286.2031,96.4469 Q286.5938,96.2906 287.0156,95.8531 Q287.2813,95.5875 287.4297,95.5094 Q287.5781,95.4312 287.7813,95.4312 Q288.1094,95.4312 288.3672,95.6891 Q288.625,95.9469 288.625,96.2906 Q288.625,96.6344 288.2813,97.0406 Q287.7813,97.6187 286.9844,97.9469 Q285.9063,98.4 284.6094,98.4 Q283.0938,98.4 281.8906,97.775 Q280.9063,97.275 280.2188,96.2047 Q279.5313,95.1344 279.5313,93.8531 L279.5313,92.6969 Q279.5313,91.3687 280.1484,90.2203 Q280.7656,89.0719 281.8594,88.4547 Q282.9531,87.8375 284.1875,87.8375 Q284.9219,87.8375 285.5703,88.0016 Q286.2188,88.1656 286.7656,88.525 Z " fill="#000000"/><text fill="#000000" font-family="sans-serif" font-size="14" lengthAdjust="spacing" textLength="40" x="298" y="98.3785">Scene</text><line style="stroke:#181818;stroke-width:0.5;" x1="270" x2="340" y1="108.65" y2="108.65"/><line style="stroke:#181818;stroke-width:0.5;" x1="270" x2="340" y1="116.65" y2="116.65"/></g><!--MD5=[eedde156c9dded963040b22578af45fa]
class Level--><g id="elem_Level"><rect codeLine="5" fill="#F1F1F1" height="83.2188" id="Level" rx="2.5" ry="2.5" style="stroke:#181818;stroke-width:0.5;" width="164" x="7" y="59.15"/><ellipse cx="67.75" cy="75.15" fill="#ADD1B2" rx="11" ry="11" style="stroke:#181818;stroke-width:1.0;"/><path d="M70.5156,71.025 Q70.6719,70.8062 70.8594,70.6969 Q71.0469,70.5875 71.2656,70.5875 Q71.6406,70.5875 71.875,70.8453 Q72.1094,71.1031 72.1094,71.7125 L72.1094,73.1656 Q72.1094,73.775 71.875,74.0406 Q71.6406,74.3062 71.2656,74.3062 Q70.9219,74.3062 70.7188,74.1031 Q70.5156,73.9156 70.4063,73.4 Q70.3594,73.0406 70.1719,72.8531 Q69.8438,72.4781 69.2344,72.2594 Q68.625,72.0406 68,72.0406 Q67.2344,72.0406 66.6016,72.3687 Q65.9688,72.6969 65.4766,73.4469 Q64.9844,74.1969 64.9844,75.2281 L64.9844,76.3219 Q64.9844,77.5562 65.875,78.3766 Q66.7656,79.1969 68.3594,79.1969 Q69.2969,79.1969 69.9531,78.9469 Q70.3438,78.7906 70.7656,78.3531 Q71.0313,78.0875 71.1797,78.0094 Q71.3281,77.9312 71.5313,77.9312 Q71.8594,77.9312 72.1172,78.1891 Q72.375,78.4469 72.375,78.7906 Q72.375,79.1344 72.0313,79.5406 Q71.5313,80.1187 70.7344,80.4469 Q69.6563,80.9 68.3594,80.9 Q66.8438,80.9 65.6406,80.275 Q64.6563,79.775 63.9688,78.7047 Q63.2813,77.6344 63.2813,76.3531 L63.2813,75.1969 Q63.2813,73.8687 63.8984,72.7203 Q64.5156,71.5719 65.6094,70.9547 Q66.7031,70.3375 67.9375,70.3375 Q68.6719,70.3375 69.3203,70.5016 Q69.9688,70.6656 70.5156,71.025 Z " fill="#000000"/><text fill="#000000" font-family="sans-serif" font-size="14" lengthAdjust="spacing" textLength="34" x="88.25" y="80.8785">Level</text><line style="stroke:#181818;stroke-width:0.5;" x1="8" x2="170" y1="91.15" y2="91.15"/><text fill="#000000" font-family="sans-serif" font-size="14" lengthAdjust="spacing" textLength="152" x="13" y="109.6832">// Programable interface</text><line style="stroke:#181818;stroke-width:0.5;" x1="8" x2="170" y1="116.7594" y2="116.7594"/><ellipse cx="18" cy="127.7594" fill="#84BE84" rx="3" ry="3" style="stroke:#038048;stroke-width:1.0;"/><text fill="#000000" font-family="sans-serif" font-size="14" lengthAdjust="spacing" textLength="31" x="27" y="135.2926">run()</text></g><!--MD5=[44201db48fb57df1a9c7f5b6b15426b0]
class Actor--><g id="elem_Actor"><rect fill="#F1F1F1" height="48" id="Actor" rx="2.5" ry="2.5" style="stroke:#181818;stroke-width:0.5;" width="65" x="272.5" y="203.15"/><ellipse cx="287.5" cy="219.15" fill="#ADD1B2" rx="11" ry="11" style="stroke:#181818;stroke-width:1.0;"/><path d="M290.2656,215.025 Q290.4219,214.8062 290.6094,214.6969 Q290.7969,214.5875 291.0156,214.5875 Q291.3906,214.5875 291.625,214.8453 Q291.8594,215.1031 291.8594,215.7125 L291.8594,217.1656 Q291.8594,217.775 291.625,218.0406 Q291.3906,218.3062 291.0156,218.3062 Q290.6719,218.3062 290.4688,218.1031 Q290.2656,217.9156 290.1563,217.4 Q290.1094,217.0406 289.9219,216.8531 Q289.5938,216.4781 288.9844,216.2594 Q288.375,216.0406 287.75,216.0406 Q286.9844,216.0406 286.3516,216.3687 Q285.7188,216.6969 285.2266,217.4469 Q284.7344,218.1969 284.7344,219.2281 L284.7344,220.3219 Q284.7344,221.5562 285.625,222.3766 Q286.5156,223.1969 288.1094,223.1969 Q289.0469,223.1969 289.7031,222.9469 Q290.0938,222.7906 290.5156,222.3531 Q290.7813,222.0875 290.9297,222.0094 Q291.0781,221.9312 291.2813,221.9312 Q291.6094,221.9312 291.8672,222.1891 Q292.125,222.4469 292.125,222.7906 Q292.125,223.1344 291.7813,223.5406 Q291.2813,224.1187 290.4844,224.4469 Q289.4063,224.9 288.1094,224.9 Q286.5938,224.9 285.3906,224.275 Q284.4063,223.775 283.7188,222.7047 Q283.0313,221.6344 283.0313,220.3531 L283.0313,219.1969 Q283.0313,217.8687 283.6484,216.7203 Q284.2656,215.5719 285.3594,214.9547 Q286.4531,214.3375 287.6875,214.3375 Q288.4219,214.3375 289.0703,214.5016 Q289.7188,214.6656 290.2656,215.025 Z " fill="#000000"/><text fill="#000000" font-family="sans-serif" font-size="14" lengthAdjust="spacing" textLength="33" x="301.5" y="224.8785">Actor</text><line style="stroke:#181818;stroke-width:0.5;" x1="273.5" x2="336.5" y1="235.15" y2="235.15"/><line style="stroke:#181818;stroke-width:0.5;" x1="273.5" x2="336.5" y1="243.15" y2="243.15"/></g><!--MD5=[4e13963c9dc916a21a8436ef39422b32]
class Component--><g id="elem_Component"><rect fill="#F1F1F1" height="48" id="Component" rx="2.5" ry="2.5" style="stroke:#181818;stroke-width:0.5;" width="105" x="252.5" y="312.15"/><ellipse cx="267.5" cy="328.15" fill="#ADD1B2" rx="11" ry="11" style="stroke:#181818;stroke-width:1.0;"/><path d="M270.2656,324.025 Q270.4219,323.8063 270.6094,323.6969 Q270.7969,323.5875 271.0156,323.5875 Q271.3906,323.5875 271.625,323.8453 Q271.8594,324.1031 271.8594,324.7125 L271.8594,326.1656 Q271.8594,326.775 271.625,327.0406 Q271.3906,327.3063 271.0156,327.3063 Q270.6719,327.3063 270.4688,327.1031 Q270.2656,326.9156 270.1563,326.4 Q270.1094,326.0406 269.9219,325.8531 Q269.5938,325.4781 268.9844,325.2594 Q268.375,325.0406 267.75,325.0406 Q266.9844,325.0406 266.3516,325.3688 Q265.7188,325.6969 265.2266,326.4469 Q264.7344,327.1969 264.7344,328.2281 L264.7344,329.3219 Q264.7344,330.5563 265.625,331.3766 Q266.5156,332.1969 268.1094,332.1969 Q269.0469,332.1969 269.7031,331.9469 Q270.0938,331.7906 270.5156,331.3531 Q270.7813,331.0875 270.9297,331.0094 Q271.0781,330.9313 271.2813,330.9313 Q271.6094,330.9313 271.8672,331.1891 Q272.125,331.4469 272.125,331.7906 Q272.125,332.1344 271.7813,332.5406 Q271.2813,333.1188 270.4844,333.4469 Q269.4063,333.9 268.1094,333.9 Q266.5938,333.9 265.3906,333.275 Q264.4063,332.775 263.7188,331.7047 Q263.0313,330.6344 263.0313,329.3531 L263.0313,328.1969 Q263.0313,326.8688 263.6484,325.7203 Q264.2656,324.5719 265.3594,323.9547 Q266.4531,323.3375 267.6875,323.3375 Q268.4219,323.3375 269.0703,323.5016 Q269.7188,323.6656 270.2656,324.025 Z " fill="#000000"/><text fill="#000000" font-family="sans-serif" font-size="14" lengthAdjust="spacing" textLength="73" x="281.5" y="333.8785">Component</text><line style="stroke:#181818;stroke-width:0.5;" x1="253.5" x2="356.5" y1="344.15" y2="344.15"/><line style="stroke:#181818;stroke-width:0.5;" x1="253.5" x2="356.5" y1="352.15" y2="352.15"/></g><!--MD5=[a40d0bab4807be8eab2d2b1aa0e52f24]
class GraphicComponent--><g id="elem_GraphicComponent"><rect codeLine="21" fill="#F1F1F1" height="48" id="GraphicComponent" rx="2.5" ry="2.5" style="stroke:#181818;stroke-width:0.5;" width="155" x="35.5" y="421.15"/><ellipse cx="50.5" cy="437.15" fill="#ADD1B2" rx="11" ry="11" style="stroke:#181818;stroke-width:1.0;"/><path d="M53.2656,433.025 Q53.4219,432.8063 53.6094,432.6969 Q53.7969,432.5875 54.0156,432.5875 Q54.3906,432.5875 54.625,432.8453 Q54.8594,433.1031 54.8594,433.7125 L54.8594,435.1656 Q54.8594,435.775 54.625,436.0406 Q54.3906,436.3063 54.0156,436.3063 Q53.6719,436.3063 53.4688,436.1031 Q53.2656,435.9156 53.1563,435.4 Q53.1094,435.0406 52.9219,434.8531 Q52.5938,434.4781 51.9844,434.2594 Q51.375,434.0406 50.75,434.0406 Q49.9844,434.0406 49.3516,434.3688 Q48.7188,434.6969 48.2266,435.4469 Q47.7344,436.1969 47.7344,437.2281 L47.7344,438.3219 Q47.7344,439.5563 48.625,440.3766 Q49.5156,441.1969 51.1094,441.1969 Q52.0469,441.1969 52.7031,440.9469 Q53.0938,440.7906 53.5156,440.3531 Q53.7813,440.0875 53.9297,440.0094 Q54.0781,439.9313 54.2813,439.9313 Q54.6094,439.9313 54.8672,440.1891 Q55.125,440.4469 55.125,440.7906 Q55.125,441.1344 54.7813,441.5406 Q54.2813,442.1188 53.4844,442.4469 Q52.4063,442.9 51.1094,442.9 Q49.5938,442.9 48.3906,442.275 Q47.4063,441.775 46.7188,440.7047 Q46.0313,439.6344 46.0313,438.3531 L46.0313,437.1969 Q46.0313,435.8688 46.6484,434.7203 Q47.2656,433.5719 48.3594,432.9547 Q49.4531,432.3375 50.6875,432.3375 Q51.4219,432.3375 52.0703,432.5016 Q52.7188,432.6656 53.2656,433.025 Z " fill="#000000"/><text fill="#000000" font-family="sans-serif" font-size="14" lengthAdjust="spacing" textLength="123" x="64.5" y="442.8785">GraphicComponent</text><line style="stroke:#181818;stroke-width:0.5;" x1="36.5" x2="189.5" y1="453.15" y2="453.15"/><line style="stroke:#181818;stroke-width:0.5;" x1="36.5" x2="189.5" y1="461.15" y2="461.15"/></g><!--MD5=[bc8080301d0278258c17660cdc1f8737]
class MeshComponent--><g id="elem_MeshComponent"><rect codeLine="22" fill="#F1F1F1" height="48" id="MeshComponent" rx="2.5" ry="2.5" style="stroke:#181818;stroke-width:0.5;" width="139" x="43.5" y="530.15"/><ellipse cx="58.5" cy="546.15" fill="#ADD1B2" rx="11" ry="11" style="stroke:#181818;stroke-width:1.0;"/><path d="M61.2656,542.025 Q61.4219,541.8063 61.6094,541.6969 Q61.7969,541.5875 62.0156,541.5875 Q62.3906,541.5875 62.625,541.8453 Q62.8594,542.1031 62.8594,542.7125 L62.8594,544.1656 Q62.8594,544.775 62.625,545.0406 Q62.3906,545.3063 62.0156,545.3063 Q61.6719,545.3063 61.4688,545.1031 Q61.2656,544.9156 61.1563,544.4 Q61.1094,544.0406 60.9219,543.8531 Q60.5938,543.4781 59.9844,543.2594 Q59.375,543.0406 58.75,543.0406 Q57.9844,543.0406 57.3516,543.3688 Q56.7188,543.6969 56.2266,544.4469 Q55.7344,545.1969 55.7344,546.2281 L55.7344,547.3219 Q55.7344,548.5563 56.625,549.3766 Q57.5156,550.1969 59.1094,550.1969 Q60.0469,550.1969 60.7031,549.9469 Q61.0938,549.7906 61.5156,549.3531 Q61.7813,549.0875 61.9297,549.0094 Q62.0781,548.9313 62.2813,548.9313 Q62.6094,548.9313 62.8672,549.1891 Q63.125,549.4469 63.125,549.7906 Q63.125,550.1344 62.7813,550.5406 Q62.2813,551.1188 61.4844,551.4469 Q60.4063,551.9 59.1094,551.9 Q57.5938,551.9 56.3906,551.275 Q55.4063,550.775 54.7188,549.7047 Q54.0313,548.6344 54.0313,547.3531 L54.0313,546.1969 Q54.0313,544.8688 54.6484,543.7203 Q55.2656,542.5719 56.3594,541.9547 Q57.4531,541.3375 58.6875,541.3375 Q59.4219,541.3375 60.0703,541.5016 Q60.7188,541.6656 61.2656,542.025 Z " fill="#000000"/><text fill="#000000" font-family="sans-serif" font-size="14" lengthAdjust="spacing" textLength="107" x="72.5" y="551.8785">MeshComponent</text><line style="stroke:#181818;stroke-width:0.5;" x1="44.5" x2="181.5" y1="562.15" y2="562.15"/><line style="stroke:#181818;stroke-width:0.5;" x1="44.5" x2="181.5" y1="570.15" y2="570.15"/></g><!--MD5=[89afb486d2cb59ed552657758f8b637b]
class CollisionComponent--><g id="elem_CollisionComponent"><rect codeLine="26" fill="#F1F1F1" height="48" id="CollisionComponent" rx="2.5" ry="2.5" style="stroke:#181818;stroke-width:0.5;" width="158" x="226" y="421.15"/><ellipse cx="241" cy="437.15" fill="#ADD1B2" rx="11" ry="11" style="stroke:#181818;stroke-width:1.0;"/><path d="M243.7656,433.025 Q243.9219,432.8063 244.1094,432.6969 Q244.2969,432.5875 244.5156,432.5875 Q244.8906,432.5875 245.125,432.8453 Q245.3594,433.1031 245.3594,433.7125 L245.3594,435.1656 Q245.3594,435.775 245.125,436.0406 Q244.8906,436.3063 244.5156,436.3063 Q244.1719,436.3063 243.9688,436.1031 Q243.7656,435.9156 243.6563,435.4 Q243.6094,435.0406 243.4219,434.8531 Q243.0938,434.4781 242.4844,434.2594 Q241.875,434.0406 241.25,434.0406 Q240.4844,434.0406 239.8516,434.3688 Q239.2188,434.6969 238.7266,435.4469 Q238.2344,436.1969 238.2344,437.2281 L238.2344,438.3219 Q238.2344,439.5563 239.125,440.3766 Q240.0156,441.1969 241.6094,441.1969 Q242.5469,441.1969 243.2031,440.9469 Q243.5938,440.7906 244.0156,440.3531 Q244.2813,440.0875 244.4297,440.0094 Q244.5781,439.9313 244.7813,439.9313 Q245.1094,439.9313 245.3672,440.1891 Q245.625,440.4469 245.625,440.7906 Q245.625,441.1344 245.2813,441.5406 Q244.7813,442.1188 243.9844,442.4469 Q242.9063,442.9 241.6094,442.9 Q240.0938,442.9 238.8906,442.275 Q237.9063,441.775 237.2188,440.7047 Q236.5313,439.6344 236.5313,438.3531 L236.5313,437.1969 Q236.5313,435.8688 237.1484,434.7203 Q237.7656,433.5719 238.8594,432.9547 Q239.9531,432.3375 241.1875,432.3375 Q241.9219,432.3375 242.5703,432.5016 Q243.2188,432.6656 243.7656,433.025 Z " fill="#000000"/><text fill="#000000" font-family="sans-serif" font-size="14" lengthAdjust="spacing" textLength="126" x="255" y="442.8785">CollisionComponent</text><line style="stroke:#181818;stroke-width:0.5;" x1="227" x2="383" y1="453.15" y2="453.15"/><line style="stroke:#181818;stroke-width:0.5;" x1="227" x2="383" y1="461.15" y2="461.15"/></g><!--MD5=[7321de6d6d62c4e998ec5442864fc090]
class CameraComponent--><g id="elem_CameraComponent"><rect codeLine="29" fill="#F1F1F1" height="48" id="CameraComponent" rx="2.5" ry="2.5" style="stroke:#181818;stroke-width:0.5;" width="155" x="419.5" y="421.15"/><ellipse cx="434.5" cy="437.15" fill="#ADD1B2" rx="11" ry="11" style="stroke:#181818;stroke-width:1.0;"/><path d="M437.2656,433.025 Q437.4219,432.8063 437.6094,432.6969 Q437.7969,432.5875 438.0156,432.5875 Q438.3906,432.5875 438.625,432.8453 Q438.8594,433.1031 438.8594,433.7125 L438.8594,435.1656 Q438.8594,435.775 438.625,436.0406 Q438.3906,436.3063 438.0156,436.3063 Q437.6719,436.3063 437.4688,436.1031 Q437.2656,435.9156 437.1563,435.4 Q437.1094,435.0406 436.9219,434.8531 Q436.5938,434.4781 435.9844,434.2594 Q435.375,434.0406 434.75,434.0406 Q433.9844,434.0406 433.3516,434.3688 Q432.7188,434.6969 432.2266,435.4469 Q431.7344,436.1969 431.7344,437.2281 L431.7344,438.3219 Q431.7344,439.5563 432.625,440.3766 Q433.5156,441.1969 435.1094,441.1969 Q436.0469,441.1969 436.7031,440.9469 Q437.0938,440.7906 437.5156,440.3531 Q437.7813,440.0875 437.9297,440.0094 Q438.0781,439.9313 438.2813,439.9313 Q438.6094,439.9313 438.8672,440.1891 Q439.125,440.4469 439.125,440.7906 Q439.125,441.1344 438.7813,441.5406 Q438.2813,442.1188 437.4844,442.4469 Q436.4063,442.9 435.1094,442.9 Q433.5938,442.9 432.3906,442.275 Q431.4063,441.775 430.7188,440.7047 Q430.0313,439.6344 430.0313,438.3531 L430.0313,437.1969 Q430.0313,435.8688 430.6484,434.7203 Q431.2656,433.5719 432.3594,432.9547 Q433.4531,432.3375 434.6875,432.3375 Q435.4219,432.3375 436.0703,432.5016 Q436.7188,432.6656 437.2656,433.025 Z " fill="#000000"/><text fill="#000000" font-family="sans-serif" font-size="14" lengthAdjust="spacing" textLength="123" x="448.5" y="442.8785">CameraComponent</text><line style="stroke:#181818;stroke-width:0.5;" x1="420.5" x2="573.5" y1="453.15" y2="453.15"/><line style="stroke:#181818;stroke-width:0.5;" x1="420.5" x2="573.5" y1="461.15" y2="461.15"/></g><!--MD5=[2271fd29d1bfeeab99c894ff6d31df4a]
link Render to Window--><g id="link_Render_Window"><path codeLine="10" d="M455.71,100.65 C497.76,100.65 563.82,100.65 606.26,100.65 " fill="none" id="Render-Window" style="stroke:#181818;stroke-width:1.0;"/><polygon fill="#000000" points="483,88.8258,473.9549,85.8869,473.9549,91.7647,483,88.8258" style="stroke:#000000;stroke-width:1.0;"/><text fill="#000000" font-family="sans-serif" font-size="13" lengthAdjust="spacing" textLength="101" x="487" y="94.1451">Rendered images</text></g><!--MD5=[909abc1f65d21974bfbd0abc434964b4]
reverse link Scene to Actor--><g id="link_Scene_Actor"><path codeLine="12" d="M305,137.8 C305,158.88 305,184.84 305,203.15 " fill="none" id="Scene-backto-Actor" style="stroke:#181818;stroke-width:1.0;"/><polygon fill="#181818" points="305,124.78,301,130.78,305,136.78,309,130.78,305,124.78" style="stroke:#181818;stroke-width:1.0;"/></g><!--MD5=[8dd8504e851ab96891b50dbfe66e8375]
reverse link Actor to Component--><g id="link_Actor_Component"><path codeLine="14" d="M305,264.45 C305,280.17 305,298.11 305,311.98 " fill="none" id="Actor-backto-Component" style="stroke:#181818;stroke-width:1.0;"/><polygon fill="none" points="305,251.37,301,257.37,305,263.37,309,257.37,305,251.37" style="stroke:#181818;stroke-width:1.0;"/></g><!--MD5=[8735ec88e972fda2c47fdbfc1308f7ff]
reverse link Component to Component--><g id="link_Component_Component"><path codeLine="16" d="M370.71,326.48 C383.46,327.61 392.5,330.83 392.5,336.15 C392.5,343.16 376.76,346.53 357.54,346.26 " fill="none" id="Component-backto-Component" style="stroke:#181818;stroke-width:1.0;"/><polygon fill="none" points="357.54,326.04,363.4048,330.2357,369.5335,326.4358,363.6687,322.2401,357.54,326.04" style="stroke:#181818;stroke-width:1.0;"/></g><!--MD5=[a5401ebd4f276768606970cad38da8c2]
link Level to Render--><g id="link_Level_Render"><path codeLine="18" d="M143.65,59.14 C165.31,45.15 191.17,31.28 217,24.15 C265.84,10.67 283.7,6 331,24.15 C358.25,34.61 382.23,58.28 397.71,76.54 " fill="none" id="Level-Render" style="stroke:#181818;stroke-width:1.0;"/><polygon fill="#000000" points="226.9883,20.6674,218.1652,17.1173,217.7636,22.9814,226.9883,20.6674" style="stroke:#000000;stroke-width:1.0;"/><text fill="#000000" font-family="sans-serif" font-size="13" lengthAdjust="spacing" textLength="99" x="231" y="25.6451">Render directives</text></g><!--MD5=[ea6c779b712cb7571a240315fcd2cc52]
link Level to Scene--><g id="link_Level_Scene"><path codeLine="19" d="M171.28,100.65 C205.02,100.65 242.31,100.65 268.93,100.65 " fill="none" id="Level-Scene" style="stroke:#181818;stroke-width:1.0;"/><polygon fill="#000000" points="198.5,88.8258,189.4549,85.8869,189.4549,91.7647,198.5,88.8258" style="stroke:#000000;stroke-width:1.0;"/><text fill="#000000" font-family="sans-serif" font-size="13" lengthAdjust="spacing" textLength="48" x="202.5" y="94.1451">Controls</text></g><!--MD5=[ddf593bab01c1b24f841bf7d261cf752]
reverse link Component to GraphicComponent--><g id="link_Component_GraphicComponent"><path codeLine="23" d="M245.78,370.15 C216.24,386.61 181.23,406.12 154.58,420.98 " fill="none" id="Component-backto-GraphicComponent" style="stroke:#181818;stroke-width:1.0;"/><polygon fill="none" points="242.46,363.99,263.34,360.37,249.28,376.22,242.46,363.99" style="stroke:#181818;stroke-width:1.0;"/></g><!--MD5=[a261faeb97a9131e66a7db4e37a587a7]
reverse link GraphicComponent to MeshComponent--><g id="link_GraphicComponent_MeshComponent"><path codeLine="24" d="M113,489.73 C113,503.51 113,518.21 113,529.98 " fill="none" id="GraphicComponent-backto-MeshComponent" style="stroke:#181818;stroke-width:1.0;"/><polygon fill="none" points="106,489.37,113,469.37,120,489.37,106,489.37" style="stroke:#181818;stroke-width:1.0;"/></g><!--MD5=[6d0e5390a4420649b2d0c75dfddc3128]
reverse link Component to CollisionComponent--><g id="link_Component_CollisionComponent"><path codeLine="27" d="M305,380.73 C305,394.51 305,409.21 305,420.98 " fill="none" id="Component-backto-CollisionComponent" style="stroke:#181818;stroke-width:1.0;"/><polygon fill="none" points="298,380.37,305,360.37,312,380.37,298,380.37" style="stroke:#181818;stroke-width:1.0;"/></g><!--MD5=[1b0429f3b82228842aacfadffee1c9bf]
reverse link Component to CameraComponent--><g id="link_Component_CameraComponent"><path codeLine="30" d="M364.22,370.15 C393.76,386.61 428.77,406.12 455.42,420.98 " fill="none" id="Component-backto-CameraComponent" style="stroke:#181818;stroke-width:1.0;"/><polygon fill="none" points="360.72,376.22,346.66,360.37,367.54,363.99,360.72,376.22" style="stroke:#181818;stroke-width:1.0;"/></g><!--MD5=[fd3f93a66b09941cdc45a00b5311fefb]
@startuml

class Window {}
class Render {}
class Scene {}
class Level {
  // Programable interface
  + run()
}

Render - Window : Rendered images >

Scene *- - Actor

Actor o- - Component

Component o- - Component

Level - Render : Render directives >
Level - Scene : Controls >

class GraphicComponent {}
class MeshComponent {}
Component <|- - GraphicComponent
GraphicComponent<|- - MeshComponent

class CollisionComponent {}
Component <|- - CollisionComponent

class CameraComponent {}
Component <|- - CameraComponent

@enduml

PlantUML version 1.2022.6(Tue Jun 21 19:34:49 CEST 2022)
(MIT source distribution)
Java Runtime: Java(TM) SE Runtime Environment
JVM: Java HotSpot(TM) 64-Bit Server VM
Default Encoding: Cp1252
Language: en
Country: US
--></g></svg>